<svg width="21" height="21" viewBox="0 0 21 21" fill="none" xmlns="http://www.w3.org/2000/svg">
<rect width="21" height="21" fill="#1E1E1E"/>
<g id="Week 2 Components">
<rect width="1149" height="1228" transform="translate(-369 -518)" fill="white"/>
<g id="Group 113">
<g id="Rectangle 11" filter="url(#filter0_d_0_1)">
<mask id="path-1-inside-1_0_1" fill="white">
<path d="M-334 -33.5C-334 -40.4035 -328.403 -46 -321.5 -46H40.5001C47.4037 -46 53.0001 -40.4035 53.0001 -33.5V545H-334V-33.5Z"/>
</mask>
<path d="M-334 -33.5C-334 -40.4035 -328.403 -46 -321.5 -46H40.5001C47.4037 -46 53.0001 -40.4035 53.0001 -33.5V545H-334V-33.5Z" fill="white"/>
<path d="M-337.75 -33.5C-337.75 -42.4746 -330.475 -49.75 -321.5 -49.75H40.5001C49.4748 -49.75 56.7501 -42.4746 56.7501 -33.5H49.2501C49.2501 -38.3325 45.3326 -42.25 40.5001 -42.25H-321.5C-326.332 -42.25 -330.25 -38.3325 -330.25 -33.5H-337.75ZM53.0001 545H-334H53.0001ZM-337.75 545V-33.5C-337.75 -42.4746 -330.475 -49.75 -321.5 -49.75V-42.25C-326.332 -42.25 -330.25 -38.3325 -330.25 -33.5V545H-337.75ZM40.5001 -49.75C49.4748 -49.75 56.7501 -42.4746 56.7501 -33.5V545H49.2501V-33.5C49.2501 -38.3325 45.3326 -42.25 40.5001 -42.25V-49.75Z" fill="#CCEFEC" mask="url(#path-1-inside-1_0_1)"/>
</g>
<g id="edit (1)">
<g id="Group">
<path id="Vector" d="M19.2484 1.52452C17.529 -0.200812 14.7329 -0.200812 13.0135 1.52452L1.58223 12.9629C1.49286 13.0523 1.43753 13.1674 1.42051 13.2909L0.573586 19.5703C0.54805 19.7492 0.611889 19.9281 0.735309 20.0517C0.841707 20.1582 0.990663 20.2221 1.13962 20.2221C1.16515 20.2221 1.19069 20.2221 1.21622 20.2178L4.99545 19.7066C5.31039 19.664 5.5317 19.3743 5.48914 19.0591C5.44658 18.7438 5.15718 18.5223 4.84224 18.5649L1.81205 18.9739L2.40362 14.5945L7.00849 19.2039C7.11489 19.3104 7.26384 19.3743 7.4128 19.3743C7.56176 19.3743 7.71071 19.3147 7.81711 19.2039L19.2484 7.76556C20.0826 6.93058 20.5422 5.82296 20.5422 4.64291C20.5422 3.46287 20.0826 2.35524 19.2484 1.52452ZM13.2349 2.93035L15.1543 4.85166L4.72308 15.2931L2.80367 13.3718L13.2349 2.93035ZM7.41706 17.9855L5.54021 16.1068L15.9714 5.66533L17.8482 7.54403L7.41706 17.9855ZM18.6483 6.72184L14.0562 2.1252C14.6393 1.64381 15.3671 1.37968 16.1331 1.37968C17.0056 1.37968 17.8227 1.72049 18.4398 2.33394C19.0569 2.9474 19.3931 3.76959 19.3931 4.64291C19.3931 5.41399 19.1293 6.1382 18.6483 6.72184Z" fill="#2DBDB1"/>
</g>
</g>
</g>
</g>
<defs>
<filter id="filter0_d_0_1" x="-342.75" y="-46" width="404.5" height="608.5" filterUnits="userSpaceOnUse" color-interpolation-filters="sRGB">
<feFlood flood-opacity="0" result="BackgroundImageFix"/>
<feColorMatrix in="SourceAlpha" type="matrix" values="0 0 0 0 0 0 0 0 0 0 0 0 0 0 0 0 0 0 127 0" result="hardAlpha"/>
<feOffset dy="8.75"/>
<feGaussianBlur stdDeviation="4.375"/>
<feColorMatrix type="matrix" values="0 0 0 0 0 0 0 0 0 0 0 0 0 0 0 0 0 0 0.1 0"/>
<feBlend mode="normal" in2="BackgroundImageFix" result="effect1_dropShadow_0_1"/>
<feBlend mode="normal" in="SourceGraphic" in2="effect1_dropShadow_0_1" result="shape"/>
</filter>
</defs>
</svg>
